<svg height="22" viewBox="0 0 90 22" width="90" xmlns="http://www.w3.org/2000/svg"><g fill="#fff"><path d="m12.5486453 15c-.7782238-.001544-1.532412.2748395-2.1316439.7811792-.2476109.2114816-.47106662.450739-.6661387.7132447-.31846291.3159349-.70691097.5489417-1.13243579.6792806-.54198234.1599428-1.12267146.1116044-1.63203982-.1358561-.73275257-.3396403-1.09912886-1.086849-1.79857449-1.5283814-1.28317316-.7708578-2.90591907-.6190575-4.03013915.3770007-1.06681804.9615355-1.43954153 2.4955221-.93636775 3.8537297s1.77743499 2.2577251 3.20123934 2.2598026c.77822372.001544 1.53241191-.2748395 2.13164384-.7811792.29976242-.2377483.46629709-.5434245.76605951-.8151368.33111468-.301796.73240481-.5122453 1.16574273-.6113526.57881929-.1503762 1.19278819-.0521673 1.69865369.2717123.6661387.3736043 1.03251499 1.086849 1.69865369 1.4604534 1.3036058.7431333 2.9273852.5515515 4.0301391-.4754965 1.0148091-.987914 1.3553378-2.4971023.8659804-3.8379356-.5521863-1.3242032-1.8197651-2.1903692-3.2307727-2.2076621"/><path d="m8.8878999 1.60432571c-.41674695.71646119-.54286525 1.56098584-.35315146 2.36480444.13008648.34773441.22682058.70664118.28894211 1.07204468.04911847.40918564-.01753083.82375153-.19262807 1.19816759-.28905959.5260079-.75394926.93804223-1.31629181 1.16663686-.32104679.1261229-.70630293.1261229-1.05945439.25224581-.36325233.11531124-.70096026.29719509-.99524503.53602234-1.12260417.87901222-1.54893357 2.36352127-1.05945438 3.68909497.50079251 1.3184253 1.80775212 2.1713181 3.23935352 2.11393s2.66344021-1.0120527 3.05316341-2.3661758c.0969616-.3810712.1294999-.7752019.0963141-1.1666369-.0767445-.4169533-.184039-.82792095-.3210468-1.22969832-.1278405-.64164598-.0015295-1.30702018.3531514-1.86031283.2018423-.26765125.4660588-.48389542.7705123-.63061452.3198395-.16614685.668096-.27303139 1.0273497-.31530726.7202975-.15209861 1.3659965-.54149235 1.8299667-1.1035754.8966277-1.07907985.9996823-2.59726308.2568374-3.78368712-1.2199778-2.08102791-4.3983409-2.04949718-5.6183187.06306146"/><path d="m13.4369289 12.8840018c.3772657.6378416.9656092 1.128447 1.6663591 1.3895366.2918976.0995938.5921558.1735692.8972703.2210627.3895078.1132144.7500289.3070088 1.0574971.5684468.4372212.3608927.6943608.8907466.7049981 1.4526973.0221202.4220691-.0546336.8434926-.2243176 1.2316348-.2983612.8868719-.1933091 1.8575375.288148 2.6624436s1.2923524 1.3655331 2.2242089 1.5377467c1.3766349.2427346 2.7633952-.3716256 3.492945-1.5474386.5434651-.9035438.6047797-2.0117422.164223-2.9681617-.4405568-.9564194-1.3274231-1.6404392-2.3753533-1.8320557-.6729528-.1263215-1.4099962-.4105449-1.7624953-1.0421525-.3815286-.6300777-.4522527-1.3967544-.1922722-2.0843049.3204537-.7579291.3204537-1.6105993 0-2.3685284-.4373089-1.14730461-1.492961-1.95412727-2.7293605-2.0860185-1.2363994-.13189122-2.4427874.43363141-3.1190838 1.4621437-.6762965 1.0285123-.7072187 2.3446922-.0799487 3.4029481"/><path d="m69.9011714 11h-1.9736554c-.0705956.0046233-.1268019.0590416-.1315771.1273914v-.0318479l-2.6644348 7.7071781c-.0328942.0318479-.0657885.0636957-.0986828.0636957h-.0328942c-.0657885 0-.0986828-.0318478-.0986828-.0636957l-2.6644348-7.7071781v.0318479c-.0047752-.0683498-.0609815-.1227681-.131577-.1273914h-1.9736555c-.0705955.0046233-.1268018.0590416-.131577.1273914v.0318478l.0328943.0636957 4.0459936 10.7008754c.0328942.0636956.0657885.0955435.131577.0636956h1.5131358c.0304141.0136653.0653036.0145773.0964349.0025209s.0557464-.0360131.0680364-.0662165l4.0459937-10.7008754.0328942-.0955435v-.0318479c.0789462-.0318478 0-.0955435-.0657885-.0955435z"/><path d="m46.9377432 12.6752874c.0238258-.0252878.0352472-.0600812.0311284-.0948276v-1.454023c-.0045189-.0678376-.0577078-.1218481-.1245136-.1264368h-7.4396887c-.0668058.0045887-.1199948.0585992-.1245137.1264368v1.5172414c.0045189.0678376.0577079.1218481.1245137.1264367h4.9805447c.0311284 0 .0933852.0316092.0933852.0632184v.1264368l-5.4474708 7.3333333v.0316092c0 .0316092-.0311284.0316092-.0311284.0632184v1.4856322c.0045189.0678376.0577078.1218481.1245136.1264368h7.7509728c.0668058-.0045887.1199947-.0585992.1245136-.1264368v-1.6436781c-.0045189-.0678377-.0577078-.1218482-.1245136-.1264368h-5.2918288c-.0311284 0-.0933852-.0316092-.0933852-.0632184s0-.0948276 0-.1264368z"/><path d="m32.2888087 11c-1.5595668 0-2.6967509.3728814-3.5415163 1.3050847-.032491.0310735-.0649819.0621469-.0649819.0932204 0 .0310734.0324909-.0310735.0324909 0h-.0324909c-.032491.0621469-.032491.1242938.0324909.1553672l1.33213.9632769.0974729.0621468c.064982.0310735.1299639.0310735.1624549-.0310734.3574007-.4971751.9747292-.7146893 2.1444043-.7146893.8447654 0 1.4296029.0932204 1.8519856.3418079.4179108.2544362.6552404.7083869.6173285 1.180791v1.1497175c.0056304.0343357-.0062373.0691771-.0319342.0937528-.0256969.0245758-.0621276.0359257-.0980297.030541h-3.1841155c-2.4043321 0-3.6064982 1.4293785-3.6064982 3.1384181 0 1.8333333 1.4296029 3.2316384 3.9314079 3.2316384 1.5595668 0 2.2743683-.3418079 2.7292419-1.0564972.032491-.0310734.064982-.0621469.0974729-.0621469h.032491c.0359021-.0053847.0723328.0059653.0980297.030541.0256969.0245758.0375646.0594171.0319342.0937528v.7457627c.0047167.0666879.0602339.1197829.1299639.1242938h1.8194946c.06973-.0045109.1252472-.0576059.1299639-.1242938v-7.2370056c-.0649819-2.6443503-1.8714801-3.4833334-4.7111913-3.5144068zm2.566787 7.1468927c0 .8700565-.1624549 1.398305-.6173286 1.6779661-.4548736.279661-1.1046931.3418079-2.0794223.3418079-.6188463.0424079-1.2351631-.1104067-1.7545127-.4350283-.3548868-.2436157-.5614953-.6388048-.5523465-1.0564972-.0212244-.4129354.1736297-.8089353.5198556-1.0564971.4664676-.276813 1.0117702-.407191 1.5595667-.3728814h2.7617329c.035902-.0053816.0723328.0059652.0980297.030541.0256968.0245757.0375646.0594171.0319342.0937528z"/><path d="m53.3212996 11c-1.5595667 0-2.6967509.3728814-3.5415162 1.3050847l-.0974729.0932204s.0324909-.0310735.0324909 0h-.0324909c-.032491.0621469-.032491.1242938.0324909.1553672l1.33213.9632769.0974729.0621468c.064982.0310735.1299639.0310735.1624549-.0310734.3574007-.4971751.9747292-.7146893 2.1444043-.7146893.8447654 0 1.4296029.0932204 1.8519856.3418079.4179108.2544362.6552404.7083869.6173285 1.180791v1.1497175c.0056304.0343357-.0062373.0691771-.0319342.0937528-.0256969.0245758-.0621276.0359257-.0980297.030541h-3.1841155c-2.4043321 0-3.6064982 1.4293785-3.6064982 3.1384181 0 1.8333333 1.4296029 3.2316384 3.9314079 3.2316384 1.5595668 0 2.2743683-.3418079 2.7292419-1.0564972.032491-.0310734.064982-.0621469.0974729-.0621469h.032491c.0359021-.0053847.0723328.0059653.0980297.030541.0256969.0245758.0375646.0594171.0319342.0937528v.7457627c.0047167.0666879.0602339.1197829.1299639.1242938h1.8194946c.06973-.0045109.1252472-.0576059.1299639-.1242938v-7.2370056c-.032491-2.6443503-1.8519856-3.4833334-4.6787004-3.5144068zm2.599278 7.1468927c0 .8700565-.1624549 1.398305-.6173285 1.6779661-.4548736.279661-1.1046931.3418079-2.0794224.3418079-.6188463.0424079-1.235163-.1104067-1.7545126-.4350283-.3548869-.2436157-.5614954-.6388048-.5523466-1.0564972-.0212243-.4129354.1736298-.8089353.5198556-1.0564971.4664676-.276813 1.0117703-.407191 1.5595668-.3728814h2.7617328c.0359021-.0053816.0723329.0059652.0980297.030541.0256969.0245757.0375646.0594171.0319342.0937528v.7768362z"/><path d="m75.5157221 11c-2.1306576 0-4.5157221 1.304931-4.5157221 5.530422 0 4.4429795 2.6076705 5.4682824 4.8655315 5.4682824 1.3988006.031401 2.747503-.5091926 3.7207006-1.4913497l.0636017-.0621396c.0318009-.0621396.0318009-.1242792-.0318009-.1553489l-1.3038352-1.0874426c-.0481246-.0314154-.1108797-.0314154-.1590043 0-.6508606.5904373-1.497462.9323213-2.3850645.9631634-.7739242.0504132-1.5313002-.2347131-2.0704945-.7794708-.5391942-.5447577-.8054859-1.2938614-.7279811-2.0478798-.0055108-.0343316.0061049-.0691689.0312559-.0937417.0251511-.0245729.0608081-.0359215.0959475-.0305374h6.7735831c.068249-.0045104.122587-.0575992.1272035-.1242791v-1.5845592c.0318008-2.765211-2.0670559-4.505119-4.4839212-4.505119zm2.4486661 4.5983284c-.025441.0237809-.0604454.0351808-.0954025.0310698h-4.7383281c-.0351395.0053841-.0707965-.0059645-.0959475-.0305374-.0251511-.0245729-.0367667-.0594101-.0312559-.0937418.0318008-1.7088382 1.11303-2.6720016 2.480467-2.6720016s2.4168653.9631634 2.480467 2.6720016c.0147235.0111838.0233358.0283837.0233358.0466047s-.0086123.0354209-.0233358.0466047z"/><path d="m85.2888087 11c-1.5595668 0-2.6967509.3728814-3.5415163 1.3050847l-.0974729.0932204s.032491-.0310735.032491 0h-.032491c-.032491.0621469-.032491.1242938.032491.1553672l1.3321299.9632769.097473.0621468h.0324909c.064982.0310735.1299639.0310735.1624549-.0310734.3574007-.4971751.9747292-.7146893 2.1444043-.7146893.8447654 0 1.4296029.0932204 1.8519856.3418079.4179108.2544362.6552404.7083869.6173285 1.180791v1.1497175c.0056304.0343357-.0062373.0691771-.0319342.0937528-.0256969.0245758-.0621276.0359257-.0980297.030541h-3.1841155c-2.4043321 0-3.6064982 1.4293785-3.6064982 3.1384181 0 1.8333333 1.4296029 3.2316384 3.9314079 3.2316384 1.5595668 0 2.2743683-.3418079 2.7292419-1.0564972.032491-.0310734.064982-.0621469.0974729-.0621469h.032491c.0359021-.0053847.0723328.0059653.0980297.030541.0256969.0245758.0375646.0594171.0319342.0937528v.7457627c.0047167.0666879.0602339.1197829.1299639.1242938h1.8194946c.06973-.0045109.1252472-.0576059.1299639-.1242938v-7.2370056c-.0649819-2.6443503-1.8844765-3.4833334-4.7111913-3.5144068zm2.5992779 7.1468927c0 .8700565-.1624548 1.398305-.6173285 1.6779661-.4548736.279661-1.1046931.3418079-2.0794224.3418079-.6188463.0424079-1.235163-.1104067-1.7545126-.4350283-.3548868-.2436157-.5614954-.6388048-.5523466-1.0564972-.0212243-.4129354.1736298-.8089353.5198556-1.0564971.4664677-.276813 1.0117703-.407191 1.5595668-.3728814h2.7617329c.035902-.0053816.0723328.0059652.0980297.030541.0256968.0245757.0375645.0594171.0319342.0937528v.7768362z"/></g></svg>
