<svg height="23" viewBox="0 0 24 23" width="24" xmlns="http://www.w3.org/2000/svg"><path d="m15.202504 1.85374869c.7034608-.19041461 1.4795623-.11246798 2.1648668.28087858.6870046.39896587 1.1467014 1.03415708 1.3376808 1.73977666.1918557.70885749.1126658 1.48922678-.2809689 2.17505267l-1.4827321 2.58226825 2.9409404.00056611c.7918959 0 1.5088232.32097927 2.0277765.83993253.5189532.51895327.8399325 1.23588051.8399325 2.02777651s-.3209793 1.5088232-.8399325 2.0277765c-.5189533.5189533-1.2358806.8399325-2.0278179.8399325l-2.9408974-.0001621 1.482798 2.5831141c.3929771.6846802.4724369 1.4637839.2829861 2.1708344-.1894507.7070505-.647812 1.3420476-1.3304773 1.7385147-.6799969.3949173-1.4556904.4768246-2.160114.2900034s-1.3375774-.6423709-1.7344475-1.3257505l-1.4820925-2.5828523-1.4767871 2.5736462c-.391441.6820039-1.02226111 1.1407798-1.7257219 1.3311944s-1.4795623.112468-2.16486675-.2808786c-.68700469-.3989658-1.14670149-1.0341571-1.33768087-1.7397766-.19185572-.7088575-.11266573-1.4892268.28084756-2.1748412l1.48215499-2.583208-2.94024189.0001621c-.79189599 0-1.50882325-.3209792-2.02777651-.8399325s-.83993253-1.2358805-.83993253-2.0277765.32097927-1.50882324.83993253-2.02777651c.51895326-.51895326 1.23588052-.83993253 2.02763211-.83993251l2.94038791-.00056613-1.48210272-2.58238585c-.39297709-.68468019-.47243693-1.46378394-.28298618-2.1708344s.64781209-1.34204763 1.33047734-1.73851466c.67999689-.39491733 1.4556904-.47682467 2.16011402-.29000347.70442363.18682121 1.33757739.64237097 1.73447759 1.32580294l1.481368 2.58207196 1.4774815-2.57291828c.391441-.68200394 1.0222611-1.14077979 1.7257219-1.3311944z" fill="#f00" stroke="#fff" stroke-width="1.5"/></svg>