<svg height="32" viewBox="0 0 170 32" width="170" xmlns="http://www.w3.org/2000/svg"><g fill="#fff" fill-rule="nonzero"><path d="m56.976 27v-14.544h3.192v-2.448h-9.216v2.448h3.192v14.544zm12.72 0v-2.568h-5.088v-5.016h4.488v-2.352h-4.488v-4.512h4.848v-2.544h-7.608v16.992zm4.008 0 2.856-6.504 2.832 6.504h3.096l-4.272-8.952 3.864-8.04h-2.952l-2.496 5.856-2.52-5.856h-3l3.84 8.04-4.248 8.952zm14.88 0v-14.544h3.192v-2.448h-9.216v2.448h3.192v14.544zm9.912.432c.976 0 1.804-.168 2.484-.504s1.236-.796 1.668-1.38.744-1.268.936-2.052.288-1.624.288-2.52v-10.968h-2.856v10.704c0 .528-.036 1.036-.108 1.524s-.2.916-.384 1.284-.436.66-.756.876-.728.324-1.224.324-.904-.108-1.224-.324-.572-.508-.756-.876-.312-.796-.384-1.284-.108-.996-.108-1.524v-10.704h-2.88v10.968c0 .896.092 1.736.276 2.52s.488 1.468.912 2.052.972 1.044 1.644 1.38 1.496.504 2.472.504zm11.352-.432v-7.248h1.608l2.64 7.248h3.024l-3.048-7.824c.304-.08.612-.228.924-.444s.596-.5.852-.852.468-.78.636-1.284.252-1.084.252-1.74c0-.848-.12-1.576-.36-2.184s-.572-1.112-.996-1.512-.932-.692-1.524-.876-1.24-.276-1.944-.276h-4.848v16.992zm1.632-9.36h-1.632v-5.232h1.632c.288 0 .576.04.864.12s.548.216.78.408.42.456.564.792.216.76.216 1.272c0 .88-.228 1.54-.684 1.98s-1.036.66-1.74.66zm15.744 9.36v-2.568h-5.088v-5.016h4.488v-2.352h-4.488v-4.512h4.848v-2.544h-7.608v16.992zm5.232 0-.048-13.056h.072l3.336 13.056h2.256l3.408-13.056h.072l-.048 13.056h2.808v-16.992h-4.056l-3.192 12.432h-.096l-3.264-12.432h-3.864v16.992zm16.488 0 .864-3.6h4.464l.84 3.6h3l-4.152-16.992h-3.672l-4.224 16.992zm4.968-5.856h-3.744l1.848-8.424h.096zm8.808 5.856v-6.816h2.016c.592 0 1.168-.104 1.728-.312s1.056-.528 1.488-.96.78-.972 1.044-1.62.396-1.404.396-2.268c0-.96-.148-1.76-.444-2.4s-.672-1.156-1.128-1.548-.972-.668-1.548-.828-1.136-.24-1.68-.24h-4.704v16.992zm1.632-9.168h-1.632v-5.4h1.632c.672 0 1.224.208 1.656.624s.648 1.08.648 1.992-.216 1.604-.648 2.076-.984.708-1.656.708z"/><path d="m34.6751773.08300124c.3090464-.12119346.6274937-.1036262.8975648.01347032-.3389096.15988264-.5727421.50439828-.5727421.90352844 0 .55228475.4477153 1 1 1 .0924127 0 .1818976-.01253543.2668471-.03599867v6.07199734c-.0849495-.02346324-.1744344-.03599867-.2668471-.03599867-.5522847 0-1 .44771525-1 1s.4477153 1 1 1c.0924127 0 .1818976-.01253543.2668471-.03599867v6.07199737c-.0849495-.0234633-.1744344-.0359987-.2668471-.0359987-.5522847 0-1 .4477153-1 1s.4477153 1 1 1c.0924127 0 .1818976-.0125354.2668471-.0359987v6.0719974c-.0849495-.0234633-.1744344-.0359987-.2668471-.0359987-.5522847 0-1 .4477153-1 1s.4477153 1 1 1c.0924127 0 .1818976-.0125354.2668471-.0359987l-.0001804.1504432c0 .4642732-.2893617.8214065-.7306366 1.0578285l-2.0911328.9318988c-.1339968-.0666756-.2850682-.1041718-.4448973-.1041718-.458411 0-.8447794.3084507-.9628803.7291271l-7.3449211 3.2708729-8.6961986-3.069-.0027277-.0476211c-.0577651-.4973387-.4804365-.8833789-.9932723-.8833789-.2900938 0-.551337.1235244-.734001.3208447l-2.6847019-.9472645-.0004479-1.4653982c.1274833.0589353.269477.091818.4191508.091818.5522847 0 1-.4477153 1-1s-.4477153-1-1-1c-.1500606 0-.2924012.0330529-.4201388.0922754l-.0019741-6.1854687c.1282445.0597988.2712788.0931933.4221129.0931933.5522847 0 1-.4477153 1-1s-.4477153-1-1-1c-.1508341 0-.2938684.0333945-.4221129.0931933l-.0019719-6.18730863c.1287495.06037746.2724772.09411533.4240848.09411533.5522847 0 1-.44771525 1-1s-.4477153-1-1-1c-.1516076 0-.2953353.03373787-.4240848.09411533l-.0019695-6.18915689c.1292526.06095855.2736732.09504156.4260543.09504156.5522847 0 1-.44771525 1-1 0-.20965545-.0645191-.40424166-.1747853-.56498675l11.8669839 4.12725012v.00990323zm-23.1007092-.08300124.130649.0441882c-.4083509.1258362-.7051171.50616727-.7051171.9558118 0 .39990366.2347397.74498093.5739457.90495844v6.19008312c-.339206.15997751-.5739457.50505478-.5739457.90495844s.2347397.74498093.5739457.90495844v6.19008316c-.339206.1599775-.5739457.5050547-.5739457.9049584s.2347397.7449809.5739457.9049584v6.1900832c-.339206.1599775-.5739457.5050547-.5739457.9049584s.2347397.7449809.5739457.9049584l.0005224 1.5297253-1.88168909.8441646c-.17972069-.172693-.4238529-.2788483-.69277901-.2788483-.55228475 0-1 .4477153-1 1l.002.038-6.41051064 2.8791102c-.7222826.2850644-1.50854741-.1984577-1.58536818-.9409264l-.00612118-.1193095v-4.8568743c.55228475 0 1-.4477153 1-1s-.44771525-1-1-1v-6c.55228475 0 1-.4477153 1-1s-.44771525-1-1-1v-6c.55228475 0 1-.44771525 1-1s-.44771525-1-1-1v-2.11297456c0-.46438918.28820379-.88591123.7277445-1.05809271zm-8.5744681 28c-.55228475 0-1 .4477153-1 1s.44771525 1 1 1 1-.4477153 1-1-.44771525-1-1-1zm24 0c-.5522847 0-1 .4477153-1 1s.4477153 1 1 1 1-.4477153 1-1-.4477153-1-1-1zm-6 0c-.5522847 0-1 .4477153-1 1s.4477153 1 1 1 1-.4477153 1-1-.4477153-1-1-1zm9-4c-.5522847 0-1 .4477153-1 1s.4477153 1 1 1 1-.4477153 1-1-.4477153-1-1-1zm-24 0c-.55228475 0-1 .4477153-1 1s.44771525 1 1 1 1-.4477153 1-1-.44771525-1-1-1zm12 0c-.5522847 0-1 .4477153-1 1s.4477153 1 1 1 1-.4477153 1-1-.4477153-1-1-1zm6 0c-.5522847 0-1 .4477153-1 1s.4477153 1 1 1 1-.4477153 1-1-.4477153-1-1-1zm-21-4c-.55228475 0-1 .4477153-1 1s.44771525 1 1 1 1-.4477153 1-1-.44771525-1-1-1zm24 0c-.5522847 0-1 .4477153-1 1s.4477153 1 1 1 1-.4477153 1-1-.4477153-1-1-1zm-12 0c-.5522847 0-1 .4477153-1 1s.4477153 1 1 1 1-.4477153 1-1-.4477153-1-1-1zm-6 0c-.55228475 0-1 .4477153-1 1s.44771525 1 1 1 1-.4477153 1-1-.44771525-1-1-1zm12 0c-.5522847 0-1 .4477153-1 1s.4477153 1 1 1 1-.4477153 1-1-.4477153-1-1-1zm12 0c-.5522847 0-1 .4477153-1 1s.4477153 1 1 1 1-.4477153 1-1-.4477153-1-1-1zm-15-4c-.5522847 0-1 .4477153-1 1s.4477153 1 1 1 1-.4477153 1-1-.4477153-1-1-1zm12 0c-.5522847 0-1 .4477153-1 1s.4477153 1 1 1 1-.4477153 1-1-.4477153-1-1-1zm-6 0c-.5522847 0-1 .4477153-1 1s.4477153 1 1 1 1-.4477153 1-1-.4477153-1-1-1zm-18 0c-.55228475 0-1 .4477153-1 1s.44771525 1 1 1 1-.4477153 1-1-.44771525-1-1-1zm27-4c-.5522847 0-1 .4477153-1 1s.4477153 1 1 1 1-.4477153 1-1-.4477153-1-1-1zm-6 0c-.5522847 0-1 .4477153-1 1s.4477153 1 1 1 1-.4477153 1-1-.4477153-1-1-1zm-6 0c-.5522847 0-1 .4477153-1 1s.4477153 1 1 1 1-.4477153 1-1-.4477153-1-1-1zm-6 0c-.5522847 0-1 .4477153-1 1s.4477153 1 1 1 1-.4477153 1-1-.4477153-1-1-1zm-6 0c-.55228475 0-1 .4477153-1 1s.44771525 1 1 1 1-.4477153 1-1-.44771525-1-1-1zm-6 0c-.55228475 0-1 .4477153-1 1s.44771525 1 1 1 1-.4477153 1-1-.44771525-1-1-1zm3-4c-.55228475 0-1 .44771525-1 1s.44771525 1 1 1 1-.44771525 1-1-.44771525-1-1-1zm12 0c-.5522847 0-1 .44771525-1 1s.4477153 1 1 1 1-.44771525 1-1-.4477153-1-1-1zm6 0c-.5522847 0-1 .44771525-1 1s.4477153 1 1 1 1-.44771525 1-1-.4477153-1-1-1zm6 0c-.5522847 0-1 .44771525-1 1s.4477153 1 1 1 1-.44771525 1-1-.4477153-1-1-1zm-21-4c-.55228475 0-1 .44771525-1 1s.44771525 1 1 1 1-.44771525 1-1-.44771525-1-1-1zm6 0c-.5522847 0-1 .44771525-1 1s.4477153 1 1 1 1-.44771525 1-1-.4477153-1-1-1zm6 0c-.5522847 0-1 .44771525-1 1s.4477153 1 1 1 1-.44771525 1-1-.4477153-1-1-1zm12 0c-.5522847 0-1 .44771525-1 1s.4477153 1 1 1 1-.44771525 1-1-.4477153-1-1-1zm-6 0c-.5522847 0-1 .44771525-1 1s.4477153 1 1 1 1-.44771525 1-1-.4477153-1-1-1zm-24 0c-.55228475 0-1 .44771525-1 1s.44771525 1 1 1 1-.44771525 1-1-.44771525-1-1-1z"/></g></svg>
