<svg width="204" height="38" viewBox="0 0 204 38" fill="none" xmlns="http://www.w3.org/2000/svg">
<path d="M41.6102 0.098564C41.9811 -0.0453533 42.3632 -0.0244921 42.6873 0.11456C42.2806 0.304421 42 0.713533 42 1.1875C42 1.84334 42.5373 2.375 43.2 2.375C43.3109 2.375 43.4183 2.36011 43.5202 2.33225V9.54275C43.4183 9.51489 43.3109 9.5 43.2 9.5C42.5373 9.5 42 10.0317 42 10.6875C42 11.3433 42.5373 11.875 43.2 11.875C43.3109 11.875 43.4183 11.8601 43.5202 11.8323V19.0427C43.4183 19.0149 43.3109 19 43.2 19C42.5373 19 42 19.5317 42 20.1875C42 20.8433 42.5373 21.375 43.2 21.375C43.3109 21.375 43.4183 21.3601 43.5202 21.3323V28.5427C43.4183 28.5149 43.3109 28.5 43.2 28.5C42.5373 28.5 42 29.0317 42 29.6875C42 30.3433 42.5373 30.875 43.2 30.875C43.3109 30.875 43.4183 30.8601 43.5202 30.8323L43.52 31.0109C43.52 31.5622 43.1728 31.9863 42.6432 32.2671L40.1339 33.3737C39.9731 33.2945 39.7918 33.25 39.6 33.25C39.0499 33.25 38.5863 33.6163 38.4445 34.1158L29.6306 38L19.1952 34.3556L19.1919 34.299C19.1226 33.7084 18.6154 33.25 18 33.25C17.6519 33.25 17.3384 33.3967 17.1192 33.631L13.8976 32.5061L13.897 30.766C14.05 30.836 14.2204 30.875 14.4 30.875C15.0627 30.875 15.6 30.3433 15.6 29.6875C15.6 29.0317 15.0627 28.5 14.4 28.5C14.2199 28.5 14.0491 28.5393 13.8958 28.6096L13.8935 21.2643C14.0474 21.3353 14.219 21.375 14.4 21.375C15.0627 21.375 15.6 20.8433 15.6 20.1875C15.6 19.5317 15.0627 19 14.4 19C14.219 19 14.0474 19.0397 13.8935 19.1107L13.8911 11.7632C14.0456 11.8349 14.2181 11.875 14.4 11.875C15.0627 11.875 15.6 11.3433 15.6 10.6875C15.6 10.0317 15.0627 9.5 14.4 9.5C14.2181 9.5 14.0456 9.54006 13.8911 9.61176L13.8887 2.26214C14.0438 2.33453 14.2171 2.375 14.4 2.375C15.0627 2.375 15.6 1.84334 15.6 1.1875C15.6 0.938534 15.5226 0.707463 15.3903 0.516578L29.6306 5.41769V5.42945L41.6102 0.098564ZM13.8894 0L14.0461 0.0524735C13.5561 0.201904 13.2 0.653547 13.2 1.1875C13.2 1.66239 13.4817 2.07216 13.8887 2.26214V9.61286C13.4817 9.80283 13.2 10.2126 13.2 10.6875C13.2 11.1624 13.4817 11.5722 13.8887 11.7621V19.1129C13.4817 19.3028 13.2 19.7126 13.2 20.1875C13.2 20.6624 13.4817 21.0722 13.8887 21.2621V28.6129C13.4817 28.8028 13.2 29.2126 13.2 29.6875C13.2 30.1624 13.4817 30.5722 13.8887 30.7621L13.8894 32.5787L11.6313 33.5811C11.4157 33.3761 11.1227 33.25 10.8 33.25C10.1373 33.25 9.6 33.7817 9.6 34.4375L9.6024 34.4826L1.90979 37.9016C1.04305 38.2401 0.0995303 37.6659 0.00734542 36.7842L0 36.6425V30.875C0.662742 30.875 1.2 30.3433 1.2 29.6875C1.2 29.0317 0.662742 28.5 0 28.5V21.375C0.662742 21.375 1.2 20.8433 1.2 20.1875C1.2 19.5317 0.662742 19 0 19V11.875C0.662742 11.875 1.2 11.3433 1.2 10.6875C1.2 10.0317 0.662742 9.5 0 9.5V6.99084C0 6.43938 0.345845 5.93882 0.873293 5.73436L13.8894 0ZM3.6 33.25C2.93726 33.25 2.4 33.7817 2.4 34.4375C2.4 35.0933 2.93726 35.625 3.6 35.625C4.26274 35.625 4.8 35.0933 4.8 34.4375C4.8 33.7817 4.26274 33.25 3.6 33.25ZM32.4 33.25C31.7373 33.25 31.2 33.7817 31.2 34.4375C31.2 35.0933 31.7373 35.625 32.4 35.625C33.0627 35.625 33.6 35.0933 33.6 34.4375C33.6 33.7817 33.0627 33.25 32.4 33.25ZM25.2 33.25C24.5373 33.25 24 33.7817 24 34.4375C24 35.0933 24.5373 35.625 25.2 35.625C25.8627 35.625 26.4 35.0933 26.4 34.4375C26.4 33.7817 25.8627 33.25 25.2 33.25ZM36 28.5C35.3373 28.5 34.8 29.0317 34.8 29.6875C34.8 30.3433 35.3373 30.875 36 30.875C36.6627 30.875 37.2 30.3433 37.2 29.6875C37.2 29.0317 36.6627 28.5 36 28.5ZM7.2 28.5C6.53726 28.5 6 29.0317 6 29.6875C6 30.3433 6.53726 30.875 7.2 30.875C7.86274 30.875 8.4 30.3433 8.4 29.6875C8.4 29.0317 7.86274 28.5 7.2 28.5ZM21.6 28.5C20.9373 28.5 20.4 29.0317 20.4 29.6875C20.4 30.3433 20.9373 30.875 21.6 30.875C22.2627 30.875 22.8 30.3433 22.8 29.6875C22.8 29.0317 22.2627 28.5 21.6 28.5ZM28.8 28.5C28.1373 28.5 27.6 29.0317 27.6 29.6875C27.6 30.3433 28.1373 30.875 28.8 30.875C29.4627 30.875 30 30.3433 30 29.6875C30 29.0317 29.4627 28.5 28.8 28.5ZM3.6 23.75C2.93726 23.75 2.4 24.2817 2.4 24.9375C2.4 25.5933 2.93726 26.125 3.6 26.125C4.26274 26.125 4.8 25.5933 4.8 24.9375C4.8 24.2817 4.26274 23.75 3.6 23.75ZM32.4 23.75C31.7373 23.75 31.2 24.2817 31.2 24.9375C31.2 25.5933 31.7373 26.125 32.4 26.125C33.0627 26.125 33.6 25.5933 33.6 24.9375C33.6 24.2817 33.0627 23.75 32.4 23.75ZM18 23.75C17.3373 23.75 16.8 24.2817 16.8 24.9375C16.8 25.5933 17.3373 26.125 18 26.125C18.6627 26.125 19.2 25.5933 19.2 24.9375C19.2 24.2817 18.6627 23.75 18 23.75ZM10.8 23.75C10.1373 23.75 9.6 24.2817 9.6 24.9375C9.6 25.5933 10.1373 26.125 10.8 26.125C11.4627 26.125 12 25.5933 12 24.9375C12 24.2817 11.4627 23.75 10.8 23.75ZM25.2 23.75C24.5373 23.75 24 24.2817 24 24.9375C24 25.5933 24.5373 26.125 25.2 26.125C25.8627 26.125 26.4 25.5933 26.4 24.9375C26.4 24.2817 25.8627 23.75 25.2 23.75ZM39.6 23.75C38.9373 23.75 38.4 24.2817 38.4 24.9375C38.4 25.5933 38.9373 26.125 39.6 26.125C40.2627 26.125 40.8 25.5933 40.8 24.9375C40.8 24.2817 40.2627 23.75 39.6 23.75ZM21.6 19C20.9373 19 20.4 19.5317 20.4 20.1875C20.4 20.8433 20.9373 21.375 21.6 21.375C22.2627 21.375 22.8 20.8433 22.8 20.1875C22.8 19.5317 22.2627 19 21.6 19ZM36 19C35.3373 19 34.8 19.5317 34.8 20.1875C34.8 20.8433 35.3373 21.375 36 21.375C36.6627 21.375 37.2 20.8433 37.2 20.1875C37.2 19.5317 36.6627 19 36 19ZM28.8 19C28.1373 19 27.6 19.5317 27.6 20.1875C27.6 20.8433 28.1373 21.375 28.8 21.375C29.4627 21.375 30 20.8433 30 20.1875C30 19.5317 29.4627 19 28.8 19ZM7.2 19C6.53726 19 6 19.5317 6 20.1875C6 20.8433 6.53726 21.375 7.2 21.375C7.86274 21.375 8.4 20.8433 8.4 20.1875C8.4 19.5317 7.86274 19 7.2 19ZM39.6 14.25C38.9373 14.25 38.4 14.7817 38.4 15.4375C38.4 16.0933 38.9373 16.625 39.6 16.625C40.2627 16.625 40.8 16.0933 40.8 15.4375C40.8 14.7817 40.2627 14.25 39.6 14.25ZM32.4 14.25C31.7373 14.25 31.2 14.7817 31.2 15.4375C31.2 16.0933 31.7373 16.625 32.4 16.625C33.0627 16.625 33.6 16.0933 33.6 15.4375C33.6 14.7817 33.0627 14.25 32.4 14.25ZM25.2 14.25C24.5373 14.25 24 14.7817 24 15.4375C24 16.0933 24.5373 16.625 25.2 16.625C25.8627 16.625 26.4 16.0933 26.4 15.4375C26.4 14.7817 25.8627 14.25 25.2 14.25ZM18 14.25C17.3373 14.25 16.8 14.7817 16.8 15.4375C16.8 16.0933 17.3373 16.625 18 16.625C18.6627 16.625 19.2 16.0933 19.2 15.4375C19.2 14.7817 18.6627 14.25 18 14.25ZM10.8 14.25C10.1373 14.25 9.6 14.7817 9.6 15.4375C9.6 16.0933 10.1373 16.625 10.8 16.625C11.4627 16.625 12 16.0933 12 15.4375C12 14.7817 11.4627 14.25 10.8 14.25ZM3.6 14.25C2.93726 14.25 2.4 14.7817 2.4 15.4375C2.4 16.0933 2.93726 16.625 3.6 16.625C4.26274 16.625 4.8 16.0933 4.8 15.4375C4.8 14.7817 4.26274 14.25 3.6 14.25ZM7.2 9.5C6.53726 9.5 6 10.0317 6 10.6875C6 11.3433 6.53726 11.875 7.2 11.875C7.86274 11.875 8.4 11.3433 8.4 10.6875C8.4 10.0317 7.86274 9.5 7.2 9.5ZM21.6 9.5C20.9373 9.5 20.4 10.0317 20.4 10.6875C20.4 11.3433 20.9373 11.875 21.6 11.875C22.2627 11.875 22.8 11.3433 22.8 10.6875C22.8 10.0317 22.2627 9.5 21.6 9.5ZM28.8 9.5C28.1373 9.5 27.6 10.0317 27.6 10.6875C27.6 11.3433 28.1373 11.875 28.8 11.875C29.4627 11.875 30 11.3433 30 10.6875C30 10.0317 29.4627 9.5 28.8 9.5ZM36 9.5C35.3373 9.5 34.8 10.0317 34.8 10.6875C34.8 11.3433 35.3373 11.875 36 11.875C36.6627 11.875 37.2 11.3433 37.2 10.6875C37.2 10.0317 36.6627 9.5 36 9.5ZM10.8 4.75C10.1373 4.75 9.6 5.28166 9.6 5.9375C9.6 6.59334 10.1373 7.125 10.8 7.125C11.4627 7.125 12 6.59334 12 5.9375C12 5.28166 11.4627 4.75 10.8 4.75ZM18 4.75C17.3373 4.75 16.8 5.28166 16.8 5.9375C16.8 6.59334 17.3373 7.125 18 7.125C18.6627 7.125 19.2 6.59334 19.2 5.9375C19.2 5.28166 18.6627 4.75 18 4.75ZM25.2 4.75C24.5373 4.75 24 5.28166 24 5.9375C24 6.59334 24.5373 7.125 25.2 7.125C25.8627 7.125 26.4 6.59334 26.4 5.9375C26.4 5.28166 25.8627 4.75 25.2 4.75ZM39.6 4.75C38.9373 4.75 38.4 5.28166 38.4 5.9375C38.4 6.59334 38.9373 7.125 39.6 7.125C40.2627 7.125 40.8 6.59334 40.8 5.9375C40.8 5.28166 40.2627 4.75 39.6 4.75ZM32.4 4.75C31.7373 4.75 31.2 5.28166 31.2 5.9375C31.2 6.59334 31.7373 7.125 32.4 7.125C33.0627 7.125 33.6 6.59334 33.6 5.9375C33.6 5.28166 33.0627 4.75 32.4 4.75ZM3.6 4.75C2.93726 4.75 2.4 5.28166 2.4 5.9375C2.4 6.59334 2.93726 7.125 3.6 7.125C4.26274 7.125 4.8 6.59334 4.8 5.9375C4.8 5.28166 4.26274 4.75 3.6 4.75Z" fill="white"/>
<path d="M77.419 11.935V14.287H72.379V28H69.46V14.287H64.42V11.935H77.419ZM84.5426 21.322V21.196C84.4306 19.32 83.6606 18.382 82.2326 18.382C81.5186 18.382 80.9586 18.641 80.5526 19.159C80.1466 19.663 79.8946 20.384 79.7966 21.322H84.5426ZM87.2936 24.85C87.1116 25.928 86.5866 26.768 85.7186 27.37C84.8506 27.972 83.7026 28.273 82.2746 28.273C80.5526 28.273 79.2296 27.748 78.3056 26.698C77.3816 25.634 76.9196 24.206 76.9196 22.414C76.9196 20.678 77.3956 19.264 78.3476 18.172C79.2996 17.08 80.6016 16.534 82.2536 16.534C84.0036 16.534 85.2986 17.059 86.1386 18.109C86.9926 19.145 87.4196 20.503 87.4196 22.183V23.086H79.7756C79.9016 25.242 80.7696 26.32 82.3796 26.32C83.5276 26.32 84.2416 25.83 84.5216 24.85H87.2936ZM88.2671 28L92.0681 22.183L88.5611 16.807H91.6691L93.7691 20.272H93.8111L95.8481 16.807H98.8511L95.3441 22.12L99.2291 28H96.0581L93.6431 24.073H93.6011L91.2701 28H88.2671ZM102.019 13.636H104.476V16.807H107.08V18.823H104.518V24.346C104.518 24.92 104.637 25.34 104.875 25.606C105.127 25.858 105.533 25.984 106.093 25.984L107.143 25.9V28.021C106.499 28.119 105.82 28.168 105.106 28.168C103.986 28.168 103.139 27.902 102.565 27.37C102.005 26.838 101.725 25.998 101.725 24.85V18.823H99.919V16.849H100.297C101.025 16.849 101.494 16.709 101.704 16.429C101.914 16.149 102.019 15.491 102.019 14.455V13.636ZM112.07 16.807V23.464C112.07 24.444 112.196 25.109 112.448 25.459C112.756 25.907 113.26 26.131 113.96 26.131C115.626 26.131 116.459 25.06 116.459 22.918V16.807H119.273V28H116.564V26.152H116.522C116.228 26.768 115.78 27.272 115.178 27.664C114.59 28.042 113.869 28.231 113.015 28.231C110.523 28.231 109.277 26.95 109.277 24.388V16.807H112.07ZM122.506 28V16.807H125.173V19.075H125.215C125.509 18.333 125.992 17.738 126.664 17.29C127.35 16.842 128.085 16.618 128.869 16.618H129.058V19.264H128.533C126.391 19.264 125.32 20.265 125.32 22.267V28H122.506ZM137.883 21.322V21.196C137.771 19.32 137.001 18.382 135.573 18.382C134.859 18.382 134.299 18.641 133.893 19.159C133.487 19.663 133.235 20.384 133.137 21.322H137.883ZM140.634 24.85C140.452 25.928 139.927 26.768 139.059 27.37C138.191 27.972 137.043 28.273 135.615 28.273C133.893 28.273 132.57 27.748 131.646 26.698C130.722 25.634 130.26 24.206 130.26 22.414C130.26 20.678 130.736 19.264 131.688 18.172C132.64 17.08 133.942 16.534 135.594 16.534C137.344 16.534 138.639 17.059 139.479 18.109C140.333 19.145 140.76 20.503 140.76 22.183V23.086H133.116C133.242 25.242 134.11 26.32 135.72 26.32C136.868 26.32 137.582 25.83 137.862 24.85H140.634ZM143.449 28V11.935H147.733L151.051 21.595L151.744 23.863H151.786C151.926 23.247 152.15 22.484 152.458 21.574L155.797 11.935H160.06V28H157.141V15.001H157.078C156.882 15.827 156.574 16.856 156.154 18.088L152.773 28H150.463L147.124 18.088C146.942 17.542 146.774 17.01 146.62 16.492C146.466 15.974 146.361 15.596 146.305 15.358L146.2 15.001H146.137V28H143.449ZM167.071 26.257C167.757 26.257 168.352 25.998 168.856 25.48C169.36 24.948 169.612 24.171 169.612 23.149V22.834C167.708 22.932 166.504 23.163 166 23.527C165.622 23.779 165.433 24.185 165.433 24.745C165.433 25.207 165.573 25.578 165.853 25.858C166.147 26.124 166.553 26.257 167.071 26.257ZM165.832 20.041H163.123C163.165 18.963 163.592 18.116 164.404 17.5C165.216 16.87 166.329 16.555 167.743 16.555C169.381 16.555 170.557 16.905 171.271 17.605C171.985 18.291 172.342 19.39 172.342 20.902V25.018C172.342 25.382 172.405 25.641 172.531 25.795C172.671 25.935 172.923 26.005 173.287 26.005V28.042H172.489C171.649 28.042 171.026 27.916 170.62 27.664C170.228 27.412 169.962 26.971 169.822 26.341H169.759C169.087 27.545 167.939 28.147 166.315 28.147C165.167 28.147 164.264 27.86 163.606 27.286C162.948 26.698 162.619 25.893 162.619 24.871C162.619 23.569 163.179 22.631 164.299 22.057C165.181 21.595 166.945 21.308 169.591 21.196V20.629C169.591 19.873 169.437 19.32 169.129 18.97C168.835 18.606 168.366 18.424 167.722 18.424C167.106 18.424 166.644 18.578 166.336 18.886C166.028 19.18 165.86 19.565 165.832 20.041ZM178.311 22.939C178.311 23.933 178.535 24.745 178.983 25.375C179.445 25.991 180.096 26.299 180.936 26.299C181.762 26.299 182.392 25.963 182.826 25.291C183.26 24.619 183.477 23.639 183.477 22.351C183.477 19.831 182.623 18.571 180.915 18.571C180.145 18.571 179.515 18.865 179.025 19.453C178.549 20.041 178.311 20.804 178.311 21.742V22.939ZM175.539 31.948V16.807H178.269V18.655H178.311C178.633 18.053 179.095 17.556 179.697 17.164C180.299 16.758 181.013 16.555 181.839 16.555C183.197 16.555 184.282 17.024 185.094 17.962C185.92 18.9 186.333 20.356 186.333 22.33C186.333 24.206 185.899 25.669 185.031 26.719C184.163 27.755 183.022 28.273 181.608 28.273C180.838 28.273 180.173 28.105 179.613 27.769C179.053 27.433 178.654 27.02 178.416 26.53H178.374V31.948H175.539Z" fill="white"/>
</svg>
