<?xml version="1.0" standalone="no"?>
<!DOCTYPE svg PUBLIC "-//W3C//DTD SVG 20010904//EN"
 "http://www.w3.org/TR/2001/REC-SVG-20010904/DTD/svg10.dtd">
<svg version="1.0" xmlns="http://www.w3.org/2000/svg"
 width="700.000000pt" height="700.000000pt" viewBox="0 0 700.000000 700.000000"
 preserveAspectRatio="xMidYMid meet">
<metadata>
Created by potrace 1.11, written by Peter Selinger 2001-2013
</metadata>
<g transform="translate(0.000000,700.000000) scale(0.100000,-0.100000)"
fill="#000000" stroke="none">
<path d="M2210 6699 c-8 -5 -60 -30 -115 -55 -353 -162 -470 -217 -550 -254
-83 -39 -150 -69 -265 -122 -25 -11 -234 -108 -465 -215 -231 -107 -438 -203
-460 -213 -365 -168 -354 -152 -355 -505 l0 -231 27 -2 c47 -4 114 -53 141
-102 34 -64 28 -152 -13 -211 -31 -44 -88 -80 -130 -83 l-25 -1 0 -602 c0
-475 3 -603 13 -604 79 -5 164 -81 174 -157 9 -70 -5 -126 -43 -171 -35 -41
-88 -71 -125 -71 -18 0 -19 -20 -19 -600 l0 -600 47 -12 c95 -23 160 -128 141
-227 -16 -85 -87 -157 -163 -163 l-25 -2 0 -501 c0 -304 4 -514 10 -536 16
-55 50 -100 104 -133 70 -44 144 -42 246 6 98 47 240 113 315 148 33 15 113
53 179 84 65 31 119 56 121 56 1 0 54 24 116 54 131 62 238 112 359 168 47 22
86 41 88 43 2 2 6 18 9 36 22 141 158 210 284 145 l48 -26 138 66 c163 78 221
101 248 99 21 -2 148 -47 358 -126 l129 -49 31 24 c107 82 253 28 299 -109 12
-35 19 -40 88 -66 68 -25 135 -49 490 -180 58 -21 328 -120 600 -220 272 -100
500 -182 505 -182 9 0 217 94 468 212 60 28 110 51 112 51 2 0 64 28 137 63
73 34 259 121 414 192 l281 130 26 47 c34 61 95 98 164 99 27 1 58 -3 69 -9
16 -8 40 0 124 40 58 27 152 70 209 96 160 72 231 150 231 254 0 27 -2 29 -32
25 -111 -13 -210 81 -210 198 0 117 100 212 211 199 l31 -4 0 608 0 607 -58 1
c-104 1 -173 70 -185 185 -4 40 17 102 50 142 29 38 106 70 154 65 l39 -4 0
608 0 608 -27 -5 c-46 -8 -126 21 -159 57 -40 44 -56 87 -56 147 1 111 82 192
193 193 l49 0 0 604 0 604 -45 0 c-186 0 -268 233 -125 354 28 23 30 27 13 34
-10 4 -43 7 -73 6 -44 -1 -76 -11 -155 -49 -55 -26 -125 -59 -155 -72 -30 -14
-161 -75 -290 -136 -129 -60 -264 -123 -300 -140 -200 -92 -822 -383 -921
-430 -101 -48 -123 -55 -168 -52 -28 1 -54 -1 -56 -6 -5 -7 -59 10 -286 94
-87 33 -272 99 -794 287 -227 82 -1129 408 -1150 416 -12 5 -12 -2 1 -41 29
-82 1 -173 -69 -229 -51 -40 -134 -48 -195 -17 -41 21 -80 64 -98 111 -15 37
-9 120 10 159 18 34 58 77 78 83 6 2 9 9 7 15 -2 6 -10 7 -19 2z m-1564 -805
c40 -15 84 -57 105 -100 62 -128 -32 -287 -169 -286 -115 1 -195 87 -193 205
2 133 134 226 257 181z m1190 -19 c51 -30 94 -108 94 -169 -1 -108 -88 -199
-192 -199 -169 0 -255 205 -139 334 63 70 153 83 237 34z m1143 10 c146 -76
143 -290 -6 -360 -135 -64 -286 51 -267 204 6 54 23 87 62 124 55 53 146 67
211 32z m1151 3 c39 -16 86 -66 102 -107 42 -108 -24 -240 -132 -268 -19 -5
-41 -8 -47 -7 -7 1 -23 2 -36 3 -36 2 -103 51 -127 92 -32 58 -37 126 -12 183
28 62 57 90 119 111 44 15 86 13 133 -7z m1125 11 c89 -24 146 -101 147 -199
1 -143 -158 -239 -281 -169 -91 51 -127 175 -78 268 26 51 56 76 113 96 48 17
50 17 99 4z m1205 -18 c90 -46 127 -178 78 -271 -16 -29 -41 -55 -69 -73 -166
-102 -352 77 -270 259 44 97 163 136 261 85z m-5220 -796 c139 -70 144 -287 9
-357 -134 -69 -281 24 -281 179 0 142 149 239 272 178z m1146 4 c33 -10 83
-58 105 -99 7 -14 14 -50 15 -80 6 -137 -124 -238 -250 -195 -141 49 -176 250
-60 343 58 47 114 56 190 31z m1203 -27 c97 -79 103 -219 13 -304 -117 -109
-295 -41 -318 121 -24 169 175 288 305 183z m1158 2 c85 -64 102 -196 37 -282
-116 -151 -345 -65 -344 129 0 34 27 99 52 130 58 70 179 81 255 23z m1140 11
c90 -58 120 -164 73 -260 -75 -155 -288 -143 -350 19 -64 170 127 337 277 241z
m-5223 -796 c50 -26 59 -36 86 -89 60 -118 -18 -268 -148 -286 -144 -20 -257
140 -198 281 42 99 167 144 260 94z m1185 -16 c53 -43 83 -106 78 -168 -10
-139 -132 -226 -252 -181 -82 32 -126 96 -128 185 -1 83 42 154 114 186 54 24
142 14 188 -22z m1131 15 c26 -13 57 -41 74 -65 25 -36 30 -53 30 -105 0 -69
-18 -114 -62 -155 -143 -133 -362 13 -310 206 32 116 160 173 268 119z m1179
-11 c164 -108 75 -379 -119 -363 -125 11 -204 128 -171 253 34 125 182 181
290 110z m1159 1 c71 -47 104 -158 73 -240 -17 -44 -70 -96 -116 -114 -153
-58 -304 109 -239 264 19 46 59 90 99 108 47 22 135 13 183 -18z m1153 2 c98
-65 119 -218 40 -304 -55 -60 -138 -80 -209 -51 -161 68 -165 299 -7 372 45
20 132 12 176 -17z m-5259 -780 c169 -47 186 -289 26 -371 -161 -82 -332 104
-249 273 40 84 131 123 223 98z m1212 -27 c55 -39 81 -93 81 -170 0 -52 -5
-68 -30 -105 -82 -118 -245 -115 -320 6 -111 180 98 390 269 269z m1143 11
c98 -62 127 -179 69 -279 -85 -144 -294 -116 -344 45 -32 102 26 219 125 250
39 13 117 4 150 -16z m1124 16 c19 -5 50 -25 69 -42 120 -117 59 -322 -102
-344 -115 -16 -217 75 -218 194 0 136 120 228 251 192z m1168 -6 c88 -35 141
-142 117 -238 -13 -55 -89 -132 -139 -141 -91 -17 -176 24 -218 107 -63 122
25 278 161 286 21 2 56 -5 79 -14z m-5174 -822 c137 -95 96 -330 -63 -358 -15
-3 -28 -7 -30 -8 -8 -9 -91 18 -123 40 -127 88 -99 298 48 349 54 19 120 11
168 -23z m1158 1 c125 -87 107 -291 -30 -349 -68 -29 -168 -9 -215 43 -48 52
-66 148 -40 214 45 114 188 161 285 92z m1150 4 c60 -36 102 -116 95 -182 -20
-172 -206 -248 -322 -131 -165 165 27 430 227 313z m1147 8 c96 -49 132 -173
80 -274 -59 -118 -216 -139 -304 -41 -75 83 -74 199 3 278 59 60 147 75 221
37z m1123 14 c160 -44 188 -274 44 -363 -80 -49 -171 -34 -236 41 -97 110 -46
291 92 323 46 11 57 11 100 -1z m1201 -18 c46 -29 65 -52 85 -106 40 -105 -26
-237 -130 -261 -160 -37 -290 126 -221 278 11 24 31 54 45 66 56 52 157 62
221 23z m-5208 -806 c63 -37 88 -85 89 -170 0 -62 -3 -75 -30 -112 -42 -59
-94 -86 -163 -85 -170 1 -249 230 -120 349 59 54 150 61 224 18z m1155 3 c74
-41 115 -149 88 -231 -28 -84 -99 -139 -179 -139 -117 0 -203 96 -194 217 11
140 163 222 285 153z m1149 7 c39 -20 87 -79 98 -119 23 -81 -4 -166 -69 -221
-86 -72 -230 -39 -284 66 -87 166 93 358 255 274z m1168 -7 c145 -89 119 -312
-43 -365 -42 -14 -88 -8 -138 16 -112 54 -142 212 -60 306 63 72 163 90 241
43z m1127 15 c99 -28 154 -165 110 -271 -22 -50 -42 -71 -98 -97 -59 -28 -114
-25 -172 9 -112 66 -129 222 -36 315 53 53 117 67 196 44z m-5162 -830 c78
-66 100 -167 54 -254 -57 -108 -197 -139 -287 -62 -107 90 -91 268 31 334 59
32 153 24 202 -18z m3448 19 c29 -12 76 -64 90 -100 46 -120 -27 -255 -150
-277 -53 -9 -118 14 -160 57 -88 89 -77 227 24 304 56 42 117 47 196 16z
m1182 -18 c128 -84 91 -312 -58 -353 -160 -44 -300 131 -224 281 33 66 77 98
143 108 51 7 88 -2 139 -36z"/>
</g>
</svg>
