<svg height="21" viewBox="0 0 20 21" width="20" xmlns="http://www.w3.org/2000/svg"><path d="m9.7500006 1c.5521873 0 1.0522077.22387198 1.4141678.58583213.3619603.36196029.5858322.8619808.5858322 1.41416787v4.03699969l3.5894619-2.07205756c.6647078-.16906151 1.1682105-.1582459 1.546054-.05504521.5202762.14210344.8596734.4503285 1.0697017.86249376.2650006.47304781.3173485 1.00890296.1868521 1.49570365-.1325088.4943075-.4535129.93808089-.9298001 1.21301265l-3.4663201 2.01635992 3.5275871 2.0360412c.490902.3369196.7854412.7880164.9005768 1.2541022.1223595.4953292.0476326 1.0173137-.2414069 1.4791334-.3727383.6311873-1.0387169.9832563-1.7237225.9832563-.3387427 0-.6823472-.0855885-1.0011022-.269026l-3.4578824-2.0126006v4.0633825c-.045296.5795573-.2773701 1.0523396-.6024169 1.3867927-.3630807.3735879-.8457487.5814514-1.36242709.5814514-.52588238 0-1.04534522-.2220766-1.42569995-.5920266-.37405158-.3638192-.60945606-.8626402-.60945606-1.4079734v-4.0369998l-3.52160909 2.0328885c-.44481127.2140762-.71200548.2541113-.97253153.2541113-.69079362 0-1.36216137-.358216-1.73370967-1.0003574-.2758508-.4783953-.33190227-1.0233625-.19937572-1.5177368.13250863-.4943076.45351253-.938081.92979981-1.2130128l3.47083792-2.0189879-3.49864238-2.03575754c-.47632397-.32998359-.76833426-.76418241-.89827211-1.21412598-.14252162-.49351813-.0928254-1.01255171.14434624-1.47014561.26194052-.40709519.56163558-.66297825.89580162-.82518467.40159809-.19493838.85374923-.25500499 1.29277053-.16527041l4.09058498 2.27202362v-4.09325796c.04581925-.58524186.28225423-1.06170288.61836894-1.39781759.36346415-.36346415.84824766-.57036896 1.38163106-.57036896z" fill="#17becf" stroke="#fff" stroke-width="1.5"/></svg>
